# xmcd
#
# Track frame offsets: 
#        150
#        4092
#        12311
#        22888
#        24915
#        35331
#        45604
#        57148
#        71215
#        75511
#        80203
#        91360
#        105578
#        118190
#        125462
#        129254
#        138697
#        150842
#        163141
#        176575
#        178977
#        189803
#        199288
#        211134
#        220549
#        224284
#        231299
#        243354
#        255104
#        268646
#        275104
#        284418
#        291332
#        293421
#        305263
#        314296
#
# Disc length: 4380 seconds
#
# Revision: 0
# Processed by: cddbd v1.5.2PL0 Copyright (c) Steve Scherf et al.
# Submitted via: ExactAudioCopy v0.99pb5
#
DISCID=fd111a24
DTITLE=The Beatles  - Telecasts - Disc 1
DYEAR=1900
DGENRE=
TTITLE0=A Taste Of Honey
TTITLE1=Twist And Shout
TTITLE2=She Loves You
TTITLE3=Intro
TTITLE4=From Me To You
TTITLE5=I'll Get You
TTITLE6=She Loves You
TTITLE7=Twist And Shout
TTITLE8=Outro
TTITLE9=Intro
TTITLE10=She Loves You
TTITLE11=Twist And Shout
TTITLE12=I Saw Her Standing There
TTITLE13=Long Tall Sally
TTITLE14=Drop In
TTITLE15=From Me To You
TTITLE16=She Loves You
TTITLE17=Till There Was You
TTITLE18=Twist And Shout
TTITLE19=Outro
TTITLE20=This Boy
TTITLE21=All My Loving
TTITLE22=I Want To Hold Your Hand
TTITLE23=Chat
TTITLE24=(On) Moonlight Bay
TTITLE25=Outro
TTITLE26=I Want To Hold Your Hand
TTITLE27=This Boy
TTITLE28=All My Loving
TTITLE29=Audience Participation
TTITLE30=Money (That's What I Want)
TTITLE31=Twist And Shout
TTITLE32=Intro
TTITLE33=Twist And Shout
TTITLE34=Please Please Me
TTITLE35=I Want To Hold Your Hand
EXTD=
EXTT0=
EXTT1=
EXTT2=
EXTT3=
EXTT4=
EXTT5=
EXTT6=
EXTT7=
EXTT8=
EXTT9=
EXTT10=
EXTT11=
EXTT12=
EXTT13=
EXTT14=
EXTT15=
EXTT16=
EXTT17=
EXTT18=
EXTT19=
EXTT20=
EXTT21=
EXTT22=
EXTT23=
EXTT24=
EXTT25=
EXTT26=
EXTT27=
EXTT28=
EXTT29=
EXTT30=
EXTT31=
EXTT32=
EXTT33=
EXTT34=
EXTT35=
PLAYORDER=
